PathFileType	4	(X/Y/Z)	C:\Users\Biomechanik\SynologyDrive\AlexP\Athlete_03\Athlete_3_22_07_06\sq_85_EMG\marker_experimental.trc
DataRate	CameraRate	NumFrames	NumMarkers	Units	OrigDataRate	OrigDataStartFrame	OrigNumFrames
200.000000	200.000000	4	58	mm	200.000000	1351	1544
Frame#	Time	BL			BR			GLAB			RFHD			LFHD			C7			T6			SPINMOL			SPINM2			SPINM3			T12			BELTOL			BELT2			BELT3			SACROL			SACR2			SACR3			LTHOL			LTH2			LTH3			LSHAOL			LSHA2			LSHA3			LHEE			LTOE			LM5			RTHOL			RTH2			RTH3			RSHAOL			RSHA2			RSHA3			RHEE			RTOE			RM5			STRN			XIPH			LACR			LUAOL			LUA2			LUA3			LLAOL			LLA2			LLA3			LWRU			RACR			RUAOL			RUA3			RLAOL			RLA2			RLA3			RWRU			USERMO0			USERMO1			USERMO2			USERMO3			USERMO4			USERMO5			
		X1	Y1	Z1	X2	Y2	Z2	X3	Y3	Z3	X4	Y4	Z4	X5	Y5	Z5	X6	Y6	Z6	X7	Y7	Z7	X8	Y8	Z8	X9	Y9	Z9	X10	Y10	Z10	X11	Y11	Z11	X12	Y12	Z12	X13	Y13	Z13	X14	Y14	Z14	X15	Y15	Z15	X16	Y16	Z16	X17	Y17	Z17	X18	Y18	Z18	X19	Y19	Z19	X20	Y20	Z20	X21	Y21	Z21	X22	Y22	Z22	X23	Y23	Z23	X24	Y24	Z24	X25	Y25	Z25	X26	Y26	Z26	X27	Y27	Z27	X28	Y28	Z28	X29	Y29	Z29	X30	Y30	Z30	X31	Y31	Z31	X32	Y32	Z32	X33	Y33	Z33	X34	Y34	Z34	X35	Y35	Z35	X36	Y36	Z36	X37	Y37	Z37	X38	Y38	Z38	X39	Y39	Z39	X40	Y40	Z40	X41	Y41	Z41	X42	Y42	Z42	X43	Y43	Z43	X44	Y44	Z44	X45	Y45	Z45	X46	Y46	Z46	X47	Y47	Z47	X48	Y48	Z48	X49	Y49	Z49	X50	Y50	Z50	X51	Y51	Z51	X52	Y52	Z52	X53	Y53	Z53	X54	Y54	Z54	X55	Y55	Z55	X56	Y56	Z56	X57	Y57	Z57	X58	Y58	Z58	

1352	6.755	128.2960052490234	1191.98779296875	-2292.397216796875	237.6132354736328	1212.023681640625	-72.95303344726555	515.6065673828125	1396.129272460938	-1163.154296875	451.56103515625	1411.60791015625	-1088.783081054688	457.2867431640625	1408.833618164062	-1246.654907226562	274.5751037597656	1310.640502929688	-1165.388916015625	131.4640808105469	1180.890502929688	-1168.0712890625	112.3711090087891	1160.204833984375	-1176.190063476562	74.69869995117188	1107.718017578125	-1129.129272460938	85.24234008789062	1104.65966796875	-1177.87548828125	68.96245574951172	1061.787475585938	-1175.834838867188	24.0706787109375	1044.245849609375	-1174.013549804688	-4.848756313323975	990.4220581054689	-1122.625	-9.28059196472168	991.7008666992189	-1172.592529296875	-40.69078826904297	916.7542114257814	-1200.426391601562	-29.98012351989746	924.1354370117189	-1151.003540039062	-70.79669952392578	872.9035644531251	-1161.166625976562	90.46964263916016	704.9439086914064	-1443.227294921875	72.47756195068359	626.8789062500001	-1445.945678710938	113.757568359375	650.7786865234376	-1462.715454101562	142.3366394042969	326.4951477050782	-1558.644409179688	99.92387390136719	259.8499450683595	-1556.628295898438	148.2460021972656	265.3252258300782	-1567.786987304688	67.93467712402344	42.47738647460947	-1508.04248046875	270.1619262695312	48.70842742919931	-1553.993286132812	211.0280303955078	22.55360412597666	-1650.885864257812	77.36917877197266	673.7888793945312	-904.8687744140625	135.3972320556641	636.7689819335938	-864.45751953125	92.35147094726562	617.765625	-881.9910278320312	90.76319122314453	323.5020446777344	-785.9841918945312	125.2127151489258	255.5337524414063	-763.970703125	79.94265747070312	262.6054687500001	-784.6307983398438	36.30738067626953	41.23912811279302	-839.4616088867188	229.5158843994141	45.54695892333989	-762.7971801757812	162.3987884521484	35.61908340454106	-676.812744140625	367.1189575195312	1165.992431640625	-1180.991333007812	337.01025390625	1008.807739257813	-1177.441772460938	239.8775177001953	1247.870361328125	-1360.893798828125	104.3966751098633	1159.328369140625	-1380.437255859375	71.84800720214844	1118.639892578125	-1339.455200195312	69.73386383056641	1114.946533203125	-1389.692138671875	54.70444488525391	1080.376953125	-1465.18212890625	97.78121185302734	1098.246948242188	-1510.376708984375	94.61908721923828	1129.781982421875	-1471.563110351562	142.2562255859375	1176.274658203125	-1522.21826171875	264.3407287597656	1243.7158203125	-985.2337646484374	140.6248474121094	1140.091918945312	-946.2489624023436	83.52773284912109	1116.168701171875	-954.2444458007811	94.04915618896484	1104.931884765625	-871.8421630859374	139.2400665283203	1149.706787109375	-883.2626953124999	134.7435760498047	1135.368530273438	-834.2386474609374	168.0038452148438	1175.691040039062	-817.3832397460936	0.2296350002288818	0.04191200062632563	-0.3550440073013306	0.129148006439209	0.1176510006189346	-0.1210009977221489	0.08826690167188644	0.03462610021233559	-0.06951790302991867	0.06983660161495209	0.2035329937934876	-0.7795789837837219	0.4031029939651489	3.008690118789673	-0.3726480007171629	2.670979976654053	0	0	
1353	6.76	128.3214874267578	1194.692749023438	-2292.349365234375	237.2547760009766	1215.002075195312	-72.86224365234368	515.5534057617188	1398.749755859375	-1163.115600585938	451.5220947265625	1414.242309570312	-1088.75830078125	457.2429809570312	1411.471557617188	-1246.600952148438	274.375	1313.241577148438	-1165.375244140625	131.4368896484375	1183.135986328125	-1168.037719726562	112.3503799438477	1162.33251953125	-1176.12109375	74.84297180175781	1109.737060546875	-1129.047607421875	85.3587646484375	1106.718383789062	-1177.801513671875	69.20657348632812	1063.695190429688	-1175.793090820312	24.40107727050781	1045.925415039062	-1173.999389648438	-4.284304141998291	991.9703979492189	-1122.619262695312	-8.723320960998535	993.2396240234376	-1172.5859375	-39.76901626586914	918.2795410156251	-1200.442626953125	-29.05874633789062	925.6734008789064	-1151.011108398438	-69.85377502441406	874.4263305664064	-1161.170776367188	90.99481201171875	705.8734130859376	-1442.801513671875	72.56352996826172	627.9047851562501	-1445.216064453125	113.9767227172852	651.5014038085939	-1462.08837890625	141.5375213623047	326.6517333984376	-1557.751831054688	99.31182098388672	259.8802490234376	-1555.92529296875	147.6151275634766	265.5257873535157	-1567.079345703125	67.93295288085938	42.42410659790048	-1508.011962890625	270.1618041992188	48.71149826049814	-1553.968627929688	211.0349426269531	22.58512878417979	-1650.862182617188	77.43628692626953	674.7610473632812	-905.3709716796875	135.1352386474609	637.1279296875	-865.0547485351562	91.96798706054688	618.5281982421875	-882.71533203125	89.74227905273438	323.5830383300782	-786.8084716796875	124.4221343994141	255.8014068603516	-764.56201171875	79.13935089111328	262.6551513671876	-785.2702026367188	36.28952407836914	41.15868377685552	-839.473388671875	229.513427734375	45.55912017822271	-762.8036499023438	162.4025421142578	35.62622833251957	-676.8228759765625	367.1210632324219	1168.742553710938	-1180.917236328125	337.2356567382812	1011.577819824219	-1177.3857421875	239.7612762451172	1250.42822265625	-1360.826416015625	104.4306411743164	1161.639770507812	-1380.3046875	71.99773406982422	1120.856689453125	-1339.337890625	69.85061645507812	1117.189819335938	-1389.5791015625	54.86305999755859	1082.626831054688	-1465.105224609375	97.89822387695312	1100.582885742188	-1510.307373046875	94.69213104248047	1132.102661132812	-1471.490844726562	142.2526245117188	1178.693115234375	-1522.156616210938	264.2079772949219	1246.361206054688	-985.1787109374999	140.6349334716797	1142.50927734375	-946.2420043945311	83.58606719970703	1118.460571289062	-954.2569580078124	94.08478546142578	1107.286499023438	-871.8389892578124	139.2111358642578	1152.135009765625	-883.2386474609374	134.704833984375	1137.805541992188	-834.2112426757811	167.9136352539062	1178.180786132812	-817.3270874023436	0.2246769964694977	0.04272710159420969	-0.3581779897212982	0.1313949972391129	0.1144229993224144	-0.1179959997534752	0.08664330095052719	0.03452559933066369	-0.07021109759807587	0.06879760324954987	0.2041500061750413	-0.7758920192718506	0.400180995464325	3.008150100708008	-0.3733339905738829	2.675169944763184	0	0	
1354	6.765000000000001	128.3477325439453	1197.37109375	-2292.29931640625	236.8956756591797	1217.957885742188	-72.76937103271477	515.4939575195312	1401.341796875	-1163.081420898438	451.4829711914062	1416.848999023438	-1088.731689453125	457.1852722167969	1414.078857421875	-1246.54638671875	274.1741333007812	1315.812377929688	-1165.3427734375	131.4070434570312	1185.349975585938	-1167.989135742188	112.3267364501953	1164.42626953125	-1176.0341796875	74.98783874511719	1111.720825195312	-1128.947875976562	85.47437286376953	1108.743041992188	-1177.709716796875	69.44986724853516	1065.569458007812	-1175.733764648438	24.73329925537109	1047.572143554688	-1173.967163085938	-3.716113805770874	993.4836425781251	-1122.598510742188	-8.163440704345703	994.7462158203126	-1172.56396484375	-38.8431282043457	919.7708740234376	-1200.446044921875	-28.13435745239258	927.1708984375001	-1151.00634765625	-68.90597534179688	875.9087524414064	-1161.167846679688	91.53307342529297	706.7969360351564	-1442.370239257812	72.65351104736328	628.9306030273439	-1444.485717773438	114.2046432495117	652.2178344726564	-1461.451171875	140.7274475097656	326.8035888671876	-1556.84912109375	98.69265747070312	259.904754638672	-1555.213134765625	146.9759521484375	265.7227172851564	-1566.361572265625	67.93215942382812	42.37014007568369	-1507.980712890625	270.16259765625	48.71443557739267	-1553.943481445312	211.0425720214844	22.61676979064951	-1650.83740234375	77.51018524169922	675.7182006835938	-905.8826904296875	134.8748168945312	637.4694213867188	-865.6686401367188	91.58621978759766	619.2783203125	-883.451904296875	88.71405029296875	323.6578674316407	-787.6492309570312	123.6245803833008	256.0679931640626	-765.1658935546875	78.33016967773438	262.7006225585938	-785.9229125976562	36.27201843261719	41.0758666992188	-839.4863891601562	229.5104675292969	45.57059860229497	-762.8111572265625	162.40673828125	35.63430023193364	-676.83349609375	367.1183471679688	1171.460571289062	-1180.829345703125	337.4539489746094	1014.316772460938	-1177.313598632812	239.6385040283203	1252.957763671875	-1360.743530273438	104.4528656005859	1163.933349609375	-1380.155029296875	72.13510894775391	1123.0576171875	-1339.2021484375	69.95238494873047	1119.417358398438	-1389.44775390625	55.00175094604492	1084.862548828125	-1465.013427734375	97.99582672119141	1102.898071289062	-1510.2255859375	94.74932098388672	1134.405029296875	-1471.407348632812	142.2393035888672	1181.085815429688	-1522.088500976562	264.0695495605469	1248.981689453125	-985.1141357421874	140.6405487060547	1144.898315429688	-946.2233276367186	83.64102935791016	1120.72265625	-954.2578735351561	94.11959075927734	1109.611450195312	-871.8250122070311	139.1803131103516	1154.533813476562	-883.2039794921874	134.6658477783203	1140.215209960938	-834.1757202148436	167.8222808837891	1180.64501953125	-817.2664184570311	0.2196059972047806	0.04379099979996683	-0.3595049977302551	0.1334690004587173	0.1118379980325699	-0.115786999464035	0.08475760370492935	0.03392840176820756	-0.07090099900960922	0.06808190047740936	0.2045090049505234	-0.772678017616272	0.3965640068054199	3.00763988494873	-0.3739390075206755	2.681809902191162	0	0	
1355	6.77	128.3744506835938	1200.0185546875	-2292.24755859375	236.5358123779297	1220.88671875	-72.67466735839837	515.4292602539062	1403.904418945312	-1163.049926757812	451.4441528320312	1419.42626953125	-1088.701782226562	457.1146240234375	1416.654907226562	-1246.489868164062	273.974365234375	1318.352172851562	-1165.290283203125	131.3751525878906	1187.531860351562	-1167.925048828125	112.3005905151367	1166.485961914062	-1175.9287109375	75.13402557373047	1113.669189453125	-1128.829223632812	85.5888671875	1110.7333984375	-1177.599365234375	69.69157409667969	1067.409912109375	-1175.656494140625	25.06647109985352	1049.184448242188	-1173.916748046875	-3.14456582069397	994.9603881835939	-1122.562622070312	-7.601541519165039	996.2191162109376	-1172.5263671875	-37.91152572631836	921.2288818359376	-1200.43603515625	-27.2059268951416	928.6284179687501	-1150.989501953125	-67.95333099365234	877.3519897460939	-1161.158081054688	92.07908630371094	707.7156372070314	-1441.935668945312	72.7415771484375	629.9575805664064	-1443.757080078125	114.4342651367188	652.9291381835939	-1460.808349609375	139.8998565673828	326.9514770507814	-1555.941650390625	98.06087493896484	259.9235839843751	-1554.495361328125	146.3224182128906	265.9168701171876	-1565.63916015625	67.93179321289062	42.31523513793955	-1507.949829101562	270.1637573242188	48.71786499023447	-1553.9189453125	211.0505065917969	22.64736747741709	-1650.812255859375	77.59104919433594	676.6599731445312	-906.402099609375	134.6153564453125	637.7935791015625	-866.2959594726562	91.20644378662109	620.015625	-884.1990356445312	87.67800140380859	323.7265319824219	-788.5046997070312	122.8191757202148	256.3337707519532	-765.7799682617188	77.51494598388672	262.7420043945313	-786.5879516601562	36.25475692749023	40.99076843261724	-839.5003662109375	229.5069274902344	45.58157730102544	-762.8193359375	162.4112091064453	35.64310836791996	-676.844482421875	367.1112976074219	1174.144775390625	-1180.72705078125	337.6641845703125	1017.02392578125	-1177.223388671875	239.5101470947266	1255.457275390625	-1360.644653320312	104.4650344848633	1166.208129882812	-1379.989013671875	72.26052856445312	1125.242309570312	-1339.048706054688	70.04018402099609	1121.628662109375	-1389.299072265625	55.12163162231445	1087.083129882812	-1464.907592773438	98.07535552978516	1105.191162109375	-1510.131958007812	94.79206848144531	1136.68798828125	-1471.313354492188	142.2173614501953	1183.451049804688	-1522.0146484375	263.9258422851562	1251.576538085938	-985.0397949218749	140.6428833007812	1147.257446289062	-946.1921386718749	83.69374847412109	1122.953735351562	-954.2459716796874	94.15506744384766	1111.90478515625	-871.7996215820311	139.1485137939453	1156.901611328125	-883.1580200195311	134.6280059814453	1142.595458984375	-834.1315917968749	167.7305908203125	1183.082275390625	-817.2011718749999	0.2144500017166138	0.04506170004606249	-0.3590640127658844	0.1352549940347672	0.109936997294426	-0.1144020035862923	0.08259589970111847	0.03289080038666726	-0.07153079658746719	0.06783770024776459	0.2045000046491623	-0.7700430154800415	0.3924070000648499	3.007139921188354	-0.3744899928569792	2.690989971160889	0	0	
